<svg xmlns="http://www.w3.org/2000/svg" width="30" height="30" fill="none"><path fill="#000" d="M21.271 0H8.73A8.48 8.48 0 0 0 .251 8.478v13.044A8.48 8.48 0 0 0 8.729 30h12.542a8.48 8.48 0 0 0 8.478-8.478V8.478A8.48 8.48 0 0 0 21.271 0M3.261 8.478A5.474 5.474 0 0 1 8.729 3.01h12.542a5.474 5.474 0 0 1 5.468 5.468v13.044a5.474 5.474 0 0 1-5.468 5.468H8.729a5.474 5.474 0 0 1-5.468-5.468z"/><path fill="#000" d="M15 22.725c4.26 0 7.726-3.465 7.726-7.725S19.26 7.274 15 7.274 7.274 10.74 7.274 15 10.74 22.725 15 22.725m0-13.043A5.324 5.324 0 0 1 20.318 15 5.324 5.324 0 0 1 15 20.318 5.324 5.324 0 0 1 9.682 15 5.324 5.324 0 0 1 15 9.682m7.952-.902a1.73 1.73 0 1 0 0-3.462 1.73 1.73 0 0 0 0 3.462"/></svg>