<svg xmlns="http://www.w3.org/2000/svg" width="24" height="24" fill="none"><path fill="#000" d="M19.501 15H14l-1.999-1H9.15q.2.375.275.8t.075.85q0 1.65-1.175 2.825T5.5 19.65t-2.825-1.175T1.5 15.65t1.175-2.825T5.5 11.65q.425 0 .85.075t.8.275h2.851l-2.851-.85q-.375.2-.8.275t-.85.075q-1.65 0-2.825-1.175T1.5 7.5t1.175-2.825T5.5 3.5t2.825 1.175T9.5 7.5q0 .425-.075.85t-.275.8l3.426 1.925L16 13h6l1 1-1 1zM16 12l-1.75-1-1.751-1H22l1 1-1 1zM5.5 9.5q.824 0 1.412-.588Q7.5 8.326 7.5 7.5q0-.824-.588-1.412A1.93 1.93 0 0 0 5.5 5.5q-.824 0-1.412.588A1.93 1.93 0 0 0 3.5 7.5q0 .825.588 1.412.587.588 1.412.588m6.501 3a.48.48 0 0 0 .35-.15.48.48 0 0 0 0-.7.48.48 0 0 0-.7 0 .48.48 0 0 0 0 .7q.15.15.35.15M5.5 17.65q.824 0 1.412-.587.588-.588.588-1.413t-.588-1.412A1.93 1.93 0 0 0 5.5 13.65q-.824 0-1.412.588A1.93 1.93 0 0 0 3.5 15.65q0 .824.588 1.412.587.588 1.412.588"/></svg>